{
  "asset": {
    "generator": "Khronos glTF Blender I/O v1.6.16",
    "version": "2.0"
  },
  "scene": 0,
  "scenes": [
    {
      "name": "Scene",
      "nodes": [
        0
      ]
    }
  ],
  "nodes": [
    {
      "mesh": 0,
      "name": "small_oil_can_01"
    }
  ],
  "materials": [
    {
      "doubleSided": true,
      "name": "small_oil_can_01",
      "normalTexture": {
        "index": 0
      },
      "pbrMetallicRoughness": {
        "baseColorTexture": {
          "index": 1
        },
        "metallicRoughnessTexture": {
          "index": 2
        }
      }
    }
  ],
  "meshes": [
    {
      "name": "Mesh.006",
      "primitives": [
        {
          "attributes": {
            "POSITION": 0,
            "NORMAL": 1,
            "TEXCOORD_0": 2
          },
          "indices": 3,
          "material": 0
        }
      ]
    }
  ],
  "textures": [
    {
      "sampler": 0,
      "source": 0
    },
    {
      "sampler": 0,
      "source": 1
    },
    {
      "sampler": 0,
      "source": 2
    }
  ],
  "images": [
    {
      "mimeType": "image/jpeg",
      "name": "small_oil_can_01_nor_gl",
      "uri": "textures/small_oil_can_01_nor_gl_1k.jpg"
    },
    {
      "mimeType": "image/jpeg",
      "name": "small_oil_can_01_diff",
      "uri": "textures/small_oil_can_01_diff_1k.jpg"
    },
    {
      "mimeType": "image/jpeg",
      "name": "small_oil_can_01_metal-small_oil_can_01_rough",
      "uri": "textures/small_oil_can_01_arm_1k.jpg"
    }
  ],
  "accessors": [
    {
      "bufferView": 0,
      "componentType": 5126,
      "count": 11488,
      "max": [
        0.1753678023815155,
        0.23679733276367188,
        0.05192456766963005
      ],
      "min": [
        -0.09072662144899368,
        0.000004231929779052734,
        -0.05192466452717781
      ],
      "type": "VEC3"
    },
    {
      "bufferView": 1,
      "componentType": 5126,
      "count": 11488,
      "type": "VEC3"
    },
    {
      "bufferView": 2,
      "componentType": 5126,
      "count": 11488,
      "type": "VEC2"
    },
    {
      "bufferView": 3,
      "componentType": 5123,
      "count": 50238,
      "type": "SCALAR"
    }
  ],
  "bufferViews": [
    {
      "buffer": 0,
      "byteLength": 137856,
      "byteOffset": 0
    },
    {
      "buffer": 0,
      "byteLength": 137856,
      "byteOffset": 137856
    },
    {
      "buffer": 0,
      "byteLength": 91904,
      "byteOffset": 275712
    },
    {
      "buffer": 0,
      "byteLength": 100476,
      "byteOffset": 367616
    }
  ],
  "samplers": [
    {
      "magFilter": 9729,
      "minFilter": 9987
    }
  ],
  "buffers": [
    {
      "byteLength": 468092,
      "uri": "small_oil_can_01.bin"
    }
  ]
}